# xmcd
#
# Track frame offsets: 
#        150
#        24061
#        47791
#
# Disc length: 953 seconds
#
# Revision: 1
# Processed by: cddbd v1.5.2PL0 Copyright (c) Steve Scherf et al.
# Submitted via: ExactAudioCopyFreeDBPlugin 1.0
#
DISCID=1703b703
DTITLE=BEGIN - Tokyo 東京
DYEAR=2006
DGENRE=Rhythmic Soul
TTITLE0=三線の花
TTITLE1=Tokyo 東京
TTITLE2=三線の花（カラオケ）
EXTD=YEAR: 2006
EXTT0=
EXTT1=
EXTT2=
PLAYORDER=
